<svg width="62" height="62" viewBox="0 0 62 62" fill="none" xmlns="http://www.w3.org/2000/svg">
<circle cx="31" cy="31" r="31" fill="#00BD82"/>
<path d="M31 17.5L16 31H20.5V43H41.5V31H46L31 17.5ZM31 25.75C34.51 25.75 37.69 27.145 40 29.41L38.2 31.18C36.2812 29.2913 33.6924 28.2396 31 28.255C28.18 28.255 25.63 29.365 23.8 31.18L22 29.41C24.4031 27.0557 27.6358 25.741 31 25.75ZM31 30.745C33.1 30.745 35.005 31.585 36.4 32.95L34.6 34.705C33.6379 33.7657 32.3446 33.243 31 33.25C29.59 33.25 28.315 33.805 27.4 34.705L25.6 32.95C27.0409 31.5348 28.9804 30.7429 31 30.745ZM31 35.755C32.41 35.755 33.55 36.865 33.55 38.245C33.55 39.625 32.41 40.75 31 40.75C29.59 40.75 28.45 39.625 28.45 38.245C28.45 36.865 29.59 35.755 31 35.755Z" fill="#FDF9F1"/>
</svg>
